<svg xmlns="http://www.w3.org/2000/svg" width="160" height="160" fill="none">
  <g opacity="0.3">
    <path
      fill="#D8AA4F"
      d="M56 26c14.36 0 26 11.64 26 26 0 19.33-13.53 36.57-26 54-12.47-17.43-26-34.67-26-54 0-14.36 11.64-26 26-26Z"
    />
    <path
      fill="#F5E3B5"
      d="M104 86c11.05 0 20 8.95 20 20 0 14.87-10.41 28.14-20 41-9.59-12.86-20-26.13-20-41 0-11.05 8.95-20 20-20Z"
      opacity="0.6"
    />
    <path
      fill="#B47B44"
      d="M122 32c8.28 0 15 6.72 15 15 0 11.15-7.82 21.27-15 31-7.18-9.73-15-19.85-15-31 0-8.28 6.72-15 15-15Z"
      opacity="0.45"
    />
    <path
      fill="#E5C981"
      d="M44 108c8.28 0 15 6.72 15 15 0 11.15-7.82 21.27-15 31-7.18-9.73-15-19.85-15-31 0-8.28 6.72-15 15-15Z"
      opacity="0.55"
    />
  </g>
</svg>

